<?xml version="1.0" encoding="UTF-8" standalone="no"?>
<svg
   xmlns:dc="http://purl.org/dc/elements/1.1/"
   xmlns:cc="http://creativecommons.org/ns#"
   xmlns:rdf="http://www.w3.org/1999/02/22-rdf-syntax-ns#"
   xmlns:svg="http://www.w3.org/2000/svg"
   xmlns="http://www.w3.org/2000/svg"
   xmlns:sodipodi="http://sodipodi.sourceforge.net/DTD/sodipodi-0.dtd"
   xmlns:inkscape="http://www.inkscape.org/namespaces/inkscape"
   width="256"
   height="256"
   viewBox="0 0 67.733332 67.733336"
   version="1.1"
   id="svg8"
   inkscape:version="1.0.1 (3bc2e813f5, 2020-09-07)"
   sodipodi:docname="Book.svg">
  <defs
     id="defs2" />
  <sodipodi:namedview
     id="base"
     pagecolor="#ffffff"
     bordercolor="#666666"
     borderopacity="1.0"
     inkscape:pageopacity="0.0"
     inkscape:pageshadow="2"
     inkscape:zoom="1.4"
     inkscape:cx="125.54782"
     inkscape:cy="129.31081"
     inkscape:document-units="mm"
     inkscape:current-layer="g119"
     inkscape:document-rotation="0"
     showgrid="false"
     inkscape:window-width="1920"
     inkscape:window-height="1017"
     inkscape:window-x="-8"
     inkscape:window-y="-8"
     inkscape:window-maximized="1"
     units="px" />
  <metadata
     id="metadata5">
    <rdf:RDF>
      <cc:Work
         rdf:about="">
        <dc:format>image/svg+xml</dc:format>
        <dc:type
           rdf:resource="http://purl.org/dc/dcmitype/StillImage" />
        <dc:title></dc:title>
      </cc:Work>
    </rdf:RDF>
  </metadata>
  <g
     inkscape:groupmode="layer"
     id="g119"
     inkscape:label="레이어 3"
     style="display:inline">
    <path
       style="fill:#ffffff;fill-opacity:1;stroke:#000000;stroke-width:0.545124;stroke-linecap:butt;stroke-linejoin:miter;stroke-miterlimit:4;stroke-dasharray:none;stroke-opacity:1"
       d="m 59.276194,26.331445 0.0687,21.00566 c -12.898565,-0.97466 -20.368197,-2.86258 -25.173671,0.73057 v -19.62025 c 4.62096,-3.56862 20.519761,-5.71589 25.104961,-2.11598 z"
       id="path115"
       sodipodi:nodetypes="ccccc" />
    <path
       style="fill:#ffffff;fill-opacity:1;stroke:#000000;stroke-width:0.545124;stroke-linecap:butt;stroke-linejoin:miter;stroke-miterlimit:4;stroke-dasharray:none;stroke-opacity:1"
       d="m 9.0918883,26.160585 0.07996,21.15135 c 12.8985697,-0.97466 20.1938797,-2.83741 24.9993547,0.75574 v -19.62025 c -5.095401,-5.90329 -16.615202,-3.22927 -25.0793147,-2.28684 z"
       id="path117"
       sodipodi:nodetypes="ccccc" />
  </g>
  <g
     inkscape:groupmode="layer"
     id="layer3"
     inkscape:label="레이어 2"
     style="display:inline">
    <path
       style="fill:#ffffff;fill-opacity:1;stroke:#000000;stroke-width:0.545124;stroke-linecap:butt;stroke-linejoin:miter;stroke-miterlimit:4;stroke-dasharray:none;stroke-opacity:1"
       d="m 55.876464,23.103425 -0.0343,19.97545 c -12.898572,-0.97467 -16.865458,1.39565 -21.670932,4.9888 v -19.62025 c 5.0954,-5.90329 13.241153,-6.28643 21.705262,-5.344 z"
       id="path24-9"
       sodipodi:nodetypes="ccccc" />
    <path
       style="fill:#ffffff;fill-opacity:1;stroke:#000000;stroke-width:0.545124;stroke-linecap:butt;stroke-linejoin:miter;stroke-miterlimit:4;stroke-dasharray:none;stroke-opacity:1"
       d="m 12.302737,23.413335 0.09713,19.57168 c 12.89857,-0.97466 16.965861,1.48951 21.771336,5.08266 v -19.62025 c -5.095401,-5.90329 -13.404353,-5.97652 -21.868466,-5.03409 z"
       id="path24-6-3"
       sodipodi:nodetypes="ccccc" />
  </g>
  <g
     inkscape:label="레이어 1"
     inkscape:groupmode="layer"
     id="layer1"
     style="display:inline">
    <path
       style="fill:#ffffff;fill-opacity:1;stroke:#000000;stroke-width:0.545124;stroke-linecap:butt;stroke-linejoin:miter;stroke-miterlimit:4;stroke-dasharray:none;stroke-opacity:1"
       d="m 52.785814,20.596565 v 19.42599 c -12.89857,-0.97467 -13.809137,4.45197 -18.614611,8.04512 v -19.62025 c 5.0954,-5.90329 10.150498,-8.79329 18.614611,-7.85086 z"
       id="path24"
       sodipodi:nodetypes="ccccc" />
    <path
       style="fill:#ffffff;fill-opacity:1;stroke:#000000;stroke-width:0.545124;stroke-linecap:butt;stroke-linejoin:miter;stroke-miterlimit:4;stroke-dasharray:none;stroke-opacity:1"
       d="m 15.556591,20.596565 v 19.42599 c 12.898569,-0.97467 13.809137,4.45197 18.614612,8.04512 v -19.62025 c -5.095401,-5.90329 -10.1505,-8.79329 -18.614612,-7.85086 z"
       id="path24-6"
       sodipodi:nodetypes="ccccc" />
  </g>
  <g
     inkscape:groupmode="layer"
     id="layer4"
     inkscape:label="연필"
     style="display:inline">
    <path
       style="fill:#ffffff;fill-opacity:1;stroke:#000000;stroke-width:0.545124;stroke-linecap:butt;stroke-linejoin:round;stroke-miterlimit:4;stroke-dasharray:none;stroke-opacity:1"
       d="m 41.95553,29.353705 3.245186,-1.82006 -3.021976,-1.83722 z"
       id="path152" />
    <path
       style="fill:#ffffff;fill-opacity:1;stroke:#000000;stroke-width:0.545124;stroke-linecap:butt;stroke-linejoin:bevel;stroke-miterlimit:4;stroke-dasharray:none;stroke-opacity:1"
       d="m 45.200716,27.533645 7.590458,-11.93188 c 0.34733,-1.2903 -2.15058,-2.68763 -3.13244,-1.86975 l -7.479994,11.96441 z"
       id="path154"
       sodipodi:nodetypes="ccccc" />
    <path
       style="fill:none;stroke:#000000;stroke-width:0.545124;stroke-linecap:butt;stroke-linejoin:miter;stroke-miterlimit:4;stroke-dasharray:none;stroke-opacity:1"
       d="m 48.943844,14.913465 3.05632,1.94025"
       id="path156" />
    <path
       style="fill:none;stroke:#000000;stroke-width:0.545124;stroke-linecap:butt;stroke-linejoin:miter;stroke-miterlimit:4;stroke-dasharray:none;stroke-opacity:1"
       d="m 43.998792,24.803565 5.133922,-8.17307"
       id="path158" />
    <path
       style="fill:#ffffff;stroke-width:0.194686;stroke-miterlimit:4;stroke-dasharray:none"
       d="m 50.690014,15.649745 c -0.62328,-0.39815 -1.17763,-0.74912 -1.23188,-0.77994 -0.0806,-0.0457 -0.0554,-0.12751 0.13736,-0.44579 0.33527,-0.55366 0.42318,-0.61731 0.84166,-0.60934 0.65849,0.0125 1.46123,0.43975 1.84635,0.98261 0.29522,0.41614 0.291,0.54082 -0.0361,1.06652 -0.16132,0.2593 -0.32276,0.4801 -0.35874,0.49066 -0.036,0.0105 -0.57539,-0.30657 -1.19868,-0.70472 z"
       id="path1011" />
  </g>
</svg>
